<?xml version="1.0" encoding="UTF-8"?>
<svg width="281px" height="33px" viewBox="0 0 281 33" version="1.1" xmlns="http://www.w3.org/2000/svg" xmlns:xlink="http://www.w3.org/1999/xlink">
    <!-- Generator: Sketch 53.2 (72643) - https://sketchapp.com -->
    <title>Group 1</title>
    <desc>Created with Sketch.</desc>
    <defs>
        <linearGradient x1="96.3%" y1="-13.6%" x2="9.2%" y2="94.8%" id="linearGradient-1">
            <stop stop-color="#D53C88" offset="0%"></stop>
            <stop stop-color="#952EE0" offset="100%"></stop>
        </linearGradient>
        <path d="M0,28 L0,0 L13.8,0 C20.2,0 24.4,4.4 24.4,10 C24.4,16 20,18.2 20,18.2 L25.4,28 L16,28 L11.8,20 L9,20 L9,28 L0,28 Z M15.4,10 C15.4,8.8 14.6,8 13.2,8 L9,8 L9,12 L13.2,12 C14.6,12 15.4,11.2 15.4,10 Z M35.6,18.2 C35.6,20 36.8,21.2 38.4,21.2 C40,21.2 41.2,20 41.2,18.2 C41.2,16.4 40,15.2 38.4,15.2 C36.8,15.2 35.6,16.4 35.6,18.2 Z M49.6,18.2 C49.6,23.8 44.8,28.6 38.4,28.6 C32,28.6 27.2,23.8 27.2,18.2 C27.2,12.6 32,7.8 38.4,7.8 C44.8,7.8 49.6,12.6 49.6,18.2 Z M60.4,18.2 C60.4,20 61.6,21.2 63.2,21.2 C64.8,21.2 66,20 66,18.2 C66,16.4 64.8,15.2 63.2,15.2 C61.6,15.2 60.4,16.4 60.4,18.2 Z M74.4,18.2 C74.4,23.8 69.6,28.6 63.2,28.6 C56.8,28.6 52,23.8 52,18.2 C52,12.6 56.8,7.8 63.2,7.8 C69.6,7.8 74.4,12.6 74.4,18.2 Z M97.6,18.6 L97.6,28 L89.6,28 L89.6,18 C89.6,16.4 89,15.8 87.8,15.8 C86.8,15.8 85.8,16.8 85.8,18.6 L85.8,28 L77.8,28 L77.8,8.4 L85.8,8.4 L85.8,10.8 C85.8,10.8 87.4,8 90.8,8 C94.8,8 96.2,11.2 96.2,11.2 C96.2,11.2 98.4,8 102.6,8 C106.6,8 109.4,10.8 109.4,16.2 L109.4,28 L101.4,28 L101.4,18 C101.4,16.4 100.8,15.8 99.6,15.8 C98.6,15.8 97.6,16.8 97.6,18.6 Z M132.200005,11.1999934 C132.203649,11.1946964 134.403482,8 138.6,8 C142.6,8 145.4,10.8 145.4,16.2 L145.4,28 L137.4,28 L137.4,18 C137.4,16.4 136.8,15.8 135.6,15.8 C134.6,15.8 133.6,16.8 133.6,18.6 L133.6,28 L125.6,28 L125.6,18 C125.6,16.4 125,15.8 123.8,15.8 C122.8,15.8 121.8,16.8 121.8,18.6 L121.8,28 L113.8,28 L113.8,8.4 L121.8,8.4 L121.8,10.8 C121.8,10.8 123.4,8 126.8,8 C130.79747,8 132.198228,11.1959527 132.199998,11.1999962 L132.200005,11.1999934 Z M167.8,28 L159.8,28 L159.8,25.8 C159.8,25.8 158.2,28.4 154.6,28.4 C151.4,28.4 148.8,25.8 148.8,22.8 C148.8,19.6 150.8,17.6 155,16.6 L160,15.4 C160,14.6 159.2,13.8 157.6,13.8 C155.4,13.8 153.8,15.6 153.8,15.6 L150,11.6 C150,11.6 152.84,7.8 158.6,7.8 C164.2,7.8 167.8,11.4 167.8,15.8 L167.8,28 Z M157.8,22.6 C159,22.6 160,21.6 160,20 L160,19.4 L157.8,20 C157,20.2 156.6,20.6 156.6,21.4 C156.6,22.2 157,22.6 157.8,22.6 Z M174.6,6 L174.6,3 L181.6,3 L181.6,8.6 L185.6,8.6 L185.6,15.4 L181.6,15.4 L181.6,19.2 C181.6,20.4 182.4,21.2 183.6,21.2 C184.8,21.2 185.6,20.8 185.6,20.8 L185.6,27.6 C185.6,27.6 183.8,28.4 181.2,28.4 C176.4,28.4 173.6,25.6 173.6,20.2 L173.6,15.4 L170.8,15.4 L170.8,8.6 L172,8.6 C173.4,8.6 174.6,7.4 174.6,6 Z M188.2,18.2 C188.2,12.6 193,7.8 199.4,7.8 C205.4,7.8 208.2,12 208.2,12 L203.4,16.8 C203.4,16.8 202.2,15 200,15 C198,15 196.6,16.4 196.6,18.2 C196.6,20 198,21.4 200,21.4 C202.2,21.4 203.4,19.6 203.4,19.6 L208.2,24.4 C208.2,24.4 205.4,28.6 199.4,28.6 C193,28.6 188.2,23.8 188.2,18.2 Z M219.2,0 L219.2,10.8 C219.2,10.8 221,8 224.6,8 C228.6,8 231.6,11 231.6,16.2 L231.6,28 L223.6,28 L223.6,18 C223.6,16.6 222.6,15.6 221.48,15.6 C220.4,15.6 219.2,16.8 219.2,18.6 L219.2,28 L211.2,28 L211.2,0 L219.2,0 Z" id="path-2"></path>
    </defs>
    <g id="Page-1" stroke="none" stroke-width="1" fill="none" fill-rule="evenodd">
        <g id="Artboard" transform="translate(-347.000000, -268.000000)">
            <g id="Group-1" transform="translate(347.000000, 268.000000)">
                <path d="M30,33 L6,33 C2.6878906,32.9961426 0.00385738115,30.3121094 1.13686838e-13,27 L1.13686838e-13,10 C0.00606237045,4.47966557 4.47966557,0.00606237045 10,0 L26,0 C31.5201063,0.00661223267 35.9933878,4.4798937 36,10 L36,27 C35.9961426,30.3121094 33.3121094,32.9961426 30,33 L30,33 Z M10,4 C6.6878906,4.00385738 4.00385738,6.6878906 4,10 L4,27 C4,28.1045695 4.8954305,29 6,29 L30,29 C31.1045695,29 32,28.1045695 32,27 L32,10 C31.9961426,6.6878906 29.3121094,4.00385738 26,4 L10,4 Z" id="Subtraction_1" fill="url(#linearGradient-1)" fill-rule="nonzero"></path>
                <g id="Roommatch" transform="translate(49.000000, 3.000000)" fill-rule="nonzero">
                    <g>
                        <use fill="#000000" xlink:href="#path-2"></use>
                        <use fill="#FFFFFF" xlink:href="#path-2"></use>
                    </g>
                </g>
                <polyline id="Path_1" stroke="#1FC1F2" stroke-width="5" stroke-linecap="round" stroke-linejoin="round" points="13.102 14.026 18.127 19.051 23.152 14.026"></polyline>
            </g>
        </g>
    </g>
</svg>