<svg width="274px" height="33px" viewBox="0 0 274 33" version="1.1" xmlns="http://www.w3.org/2000/svg" xmlns:xlink="http://www.w3.org/1999/xlink">
    <defs>
        <linearGradient x1="96.3%" y1="-13.6%" x2="9.2%" y2="94.8%" id="linearGradient-1">
            <stop stop-color="#D53C88" offset="0%"></stop>
            <stop stop-color="#952EE0" offset="100%"></stop>
        </linearGradient>
        <path d="M3.2,38 L3.2,10 L16.4,10 C22.4,10 26.6,14.2 26.6,19.6 C26.6,25.6 21.8,27.8 21.8,27.8 L27.6,38 L19.6,38 L14.8,29.2 L10.8,29.2 L10.8,38 L3.2,38 Z M19,19.6 C19,18 17.8,16.8 16,16.8 L10.8,16.8 L10.8,22.4 L16,22.4 C17.8,22.4 19,21.2 19,19.6 Z M37,28.2 C37,30.6 38.8,32.4 40.8,32.4 C42.8,32.4 44.6,30.6 44.6,28.2 C44.6,25.8 42.8,24 40.8,24 C38.8,24 37,25.8 37,28.2 Z M51.6,28.2 C51.6,33.6 46.8,38.4 40.8,38.4 C34.8,38.4 30,33.6 30,28.2 C30,22.8 34.8,18 40.8,18 C46.8,18 51.6,22.8 51.6,28.2 Z M61.4,28.2 C61.4,30.6 63.2,32.4 65.2,32.4 C67.2,32.4 69,30.6 69,28.2 C69,25.8 67.2,24 65.2,24 C63.2,24 61.4,25.8 61.4,28.2 Z M76,28.2 C76,33.6 71.2,38.4 65.2,38.4 C59.2,38.4 54.4,33.6 54.4,28.2 C54.4,22.8 59.2,18 65.2,18 C71.2,18 76,22.8 76,28.2 Z M103.8,38 L103.8,27.6 C103.8,25.6 102.8,24.6 101.2,24.6 C99.8,24.6 98.6,25.8 98.6,28.2 L98.6,38 L91.8,38 L91.8,27.6 C91.8,25.6 90.8,24.6 89.2,24.6 C87.8,24.6 86.6,25.8 86.6,28.2 L86.6,38 L79.8,38 L79.8,18.4 L86.6,18.4 L86.6,20.8 C86.6,20.8 88.2,18 91.6,18 C95.6,18 97.2,21.2 97.2,21.2 C97.2,21.2 99.4,18 103.6,18 C107.68,18 110.6,21.04 110.6,26.4 L110.6,38 L103.8,38 Z M132.800005,21.1999931 C132.803723,21.1945885 135.003553,18 139.2,18 C143.28,18 146.2,21.04 146.2,26.4 L146.2,38 L139.4,38 L139.4,27.6 C139.4,25.6 138.4,24.6 136.8,24.6 C135.4,24.6 134.2,25.8 134.2,28.2 L134.2,38 L127.4,38 L127.4,27.6 C127.4,25.6 126.4,24.6 124.8,24.6 C123.4,24.6 122.2,25.8 122.2,28.2 L122.2,38 L115.4,38 L115.4,18.4 L122.2,18.4 L122.2,20.8 C122.2,20.8 123.8,18 127.2,18 C131.194921,18 132.795933,21.1918792 132.799992,21.1999845 L132.800005,21.1999931 Z M168.2,38 L161.4,38 L161.4,35.8 C161.4,35.8 159.6,38.4 156.2,38.4 C152.4,38.4 149.8,35.8 149.8,32.8 C149.8,29.6 152,27.4 155.8,26.6 L161.4,25.4 C161.4,24.48 160.56,23.4 158.6,23.4 C155.96,23.4 154.4,25.4 154.4,25.4 L151,21.8 C151,21.8 153.68,18 159.2,18 C164.56,18 168.2,21.6 168.2,25.84 L168.2,38 Z M158.4,33.2 C160,33.2 161.4,31.8 161.4,29.8 L161.4,29.2 L158.4,29.8 C157.4,30 156.6,30.8 156.6,31.6 C156.6,32.6 157.2,33.2 158.4,33.2 Z M175.4,16.2 L175.4,12.8 L181.4,12.8 L181.4,18.8 L185.4,18.8 L185.4,24.8 L181.4,24.8 L181.4,30.4 C181.4,31.68 182.32,32.4 183.6,32.4 C184.72,32.4 185.6,32 185.6,32 L185.6,37.8 C185.6,37.8 183.8,38.4 181.6,38.4 C177.2,38.4 174.6,35.8 174.6,30.8 L174.6,24.8 L171.6,24.8 L171.6,18.8 L173,18.8 C174.4,18.8 175.4,17.8 175.4,16.2 Z M208.6,30 L195.2,30 C195.4,31.4 197,33 199.8,33 C202.6,33 204.2,31 204.2,31 L207.2,35.4 C207.2,35.4 204.2,38.4 199,38.4 C192.8,38.4 188.2,33.8 188.2,28.2 C188.2,22.6 192.8,18 198.6,18 C204.4,18 208.8,22.4 208.8,27.8 C208.8,29.2 208.6,30 208.6,30 Z M198.6,23.2 C196.8,23.2 195.6,24.4 195.2,26 L202,26 C201.6,24.4 200.4,23.2 198.6,23.2 Z M227.6,21 L224.2,24.6 C224.2,24.6 223,23.4 221.4,23.4 C220.2,23.4 219.6,24 219.6,24.6 C219.6,26.4 227.8,25.6 227.8,32 C227.8,35.4 224.8,38.4 219.4,38.4 C213.2,38.4 210.6,34.6 210.6,34.6 L214,31 C214,31 215.4,33 217.8,33 C219,33 219.6,32.4 219.6,31.8 C219.6,30 211.4,30.8 211.4,24.4 C211.4,21 214.4,18 219.8,18 C225,18 227.6,21 227.6,21 Z" id="path-2"></path>
    </defs>
    <g id="Page-1" stroke="none" stroke-width="1" fill="none" fill-rule="evenodd">
        <g id="Group-1" transform="translate(0.000000, -7.000000)">
            <path d="M30,40 L6,40 C2.6878906,39.9961426 0.00385738115,37.3121094 1.13686838e-13,34 L1.13686838e-13,17 C0.00606237045,11.4796656 4.47966557,7.00606237 10,7 L26,7 C31.5201063,7.00661223 35.9933878,11.4798937 36,17 L36,34 C35.9961426,37.3121094 33.3121094,39.9961426 30,40 L30,40 Z M10,11 C6.6878906,11.0038574 4.00385738,13.6878906 4,17 L4,34 C4,35.1045695 4.8954305,36 6,36 L30,36 C31.1045695,36 32,35.1045695 32,34 L32,17 C31.9961426,13.6878906 29.3121094,11.0038574 26,11 L10,11 Z" id="Subtraction_1" fill="url(#linearGradient-1)" fill-rule="nonzero"></path>
            <g id="Roommates" transform="translate(46.000000, 0.000000)" fill-rule="nonzero">
                <g>
                    <use fill="#000000" xlink:href="#path-2"></use>
                    <use fill="#FFFFFF" xlink:href="#path-2"></use>
                </g>
            </g>
            <polyline id="Path_1" stroke="#36AFFF" stroke-width="5" stroke-linecap="round" stroke-linejoin="round" points="13.102 21.026 18.127 26.051 23.152 21.026"></polyline>
        </g>
    </g>
</svg>